<svg xmlns="http://www.w3.org/2000/svg" version="1.1" xmlns:xlink="http://www.w3.org/1999/xlink" xmlns:svgjs="http://svgjs.dev/svgjs" width="2000" height="484" viewBox="0 0 2000 484"><g transform="matrix(1,0,0,1,-1.2121212121212466,0.4024462648439169)"><svg viewBox="0 0 396 96" data-background-color="#000000" preserveAspectRatio="xMidYMid meet" height="484" width="2000" xmlns="http://www.w3.org/2000/svg" xmlns:xlink="http://www.w3.org/1999/xlink"><g id="tight-bounds" transform="matrix(1,0,0,1,0.2400000000000091,-0.07982405253102343)"><svg viewBox="0 0 395.52 96.15964810506202" height="96.15964810506202" width="395.52"><g><svg viewBox="0 0 621.5639516215465 151.11592552265296" height="96.15964810506202" width="395.52"><g><rect width="6.268209326698178" height="151.11592552265296" x="203.3668173558478" y="0" fill="#ffffff" opacity="1" stroke-width="0" stroke="transparent" fill-opacity="1" class="rect-r$-0" data-fill-palette-color="primary" rx="1%" id="r$-0" data-palette-color="#ffffff"></rect></g><g transform="matrix(1,0,0,1,226.04395162154643,0.37591026249415904)"><svg viewBox="0 0 395.52 150.36410499766464" height="150.36410499766464" width="395.52"><g id="textblocktransform"><svg viewBox="0 0 395.52 150.36410499766464" height="150.36410499766464" width="395.52" id="textblock"><g><svg viewBox="0 0 395.52 150.36410499766464" height="150.36410499766464" width="395.52"><g transform="matrix(1,0,0,1,0,0)"><svg width="395.52" viewBox="-5.19 -44.77 227.08 94" height="150.36410499766464" data-palette-color="#ffffff"><svg></svg><svg></svg><g class="wordmark-text-0" data-fill-palette-color="primary" id="text-0"><path d="M4.74 0v-35.77h13.35c3.14 0 5.91 0.413 8.31 1.24 2.4 0.82 4.417 1.967 6.05 3.44 1.627 1.473 2.85 3.227 3.67 5.26 0.82 2.033 1.23 4.27 1.23 6.71v0c0 1.5-0.16 3.013-0.48 4.54-0.327 1.533-0.837 3.007-1.53 4.42-0.693 1.42-1.577 2.747-2.65 3.98-1.073 1.24-2.36 2.32-3.86 3.24-1.493 0.92-3.213 1.643-5.16 2.17-1.947 0.527-4.133 0.79-6.56 0.79v0zM12.08-30.96v26.15h5.96c2 0 3.733-0.347 5.2-1.04 1.467-0.687 2.68-1.633 3.64-2.84 0.96-1.207 1.677-2.627 2.15-4.26 0.473-1.64 0.71-3.403 0.71-5.29v0c0-2.067-0.273-3.893-0.82-5.48-0.547-1.587-1.35-2.917-2.41-3.99-1.053-1.073-2.35-1.883-3.89-2.43-1.54-0.547-3.293-0.82-5.26-0.82v0zM65.99 0l-2.71-8.76h-13.23l-2.66 8.76h-6.33l12.04-35.77h8.62l12.01 35.77zM51.37-13.31h10.57l-3.76-12.5-1.27-5.24h-0.49l-1.27 5.24zM85.82 0h-6.01v-35.77h10.11l13.57 21.17 2.59 5.01h0.49l-0.3-5.64v-20.54h6.01v35.77h-7.32l-16.56-25.71-2.39-4.81h-0.49l0.3 5.4zM128.98-35.77v35.77h-7.35v-35.77zM158.79 0h-20.34v-35.77h7.35v30.96h13.87zM189.11 0l-2.71-8.76h-13.23l-2.66 8.76h-6.33l12.04-35.77h8.62l12.01 35.77zM174.49-13.31h10.57l-3.76-12.5-1.27-5.24h-0.49l-1.27 5.24z" fill="#ffffff" fill-rule="nonzero" stroke="none" stroke-width="1" stroke-linecap="butt" stroke-linejoin="miter" stroke-miterlimit="10" stroke-dasharray="" stroke-dashoffset="0" font-family="none" font-weight="none" font-size="none" text-anchor="none" style="mix-blend-mode: normal" data-fill-palette-color="primary" opacity="1"></path><path transform="translate(0,39.74)" d="M10.11 0h-6.3l2.81-35.77h10.49l6.5 20.73 1.39 5.96h0.49l1.44-5.98 6.49-20.71h11.04l2.81 35.77h-7.79l-1.39-25.39-0.13-6.01h-0.53l-1.47 5.79-7.79 24.9h-6.71l-7.84-24.85-1.51-5.84h-0.54l-0.07 5.96zM77.37 0l-2.71-8.76h-13.23l-2.67 8.76h-6.32l12.04-35.77h8.62l12.01 35.77zM62.74-13.31h10.58l-3.76-12.5-1.27-5.24h-0.49l-1.27 5.24zM100.56-4.32v0c0.88 0 1.707-0.107 2.48-0.32 0.773-0.213 1.45-0.527 2.03-0.94 0.573-0.413 1.027-0.927 1.36-1.54 0.333-0.607 0.5-1.31 0.5-2.11v0c0-0.96-0.233-1.777-0.7-2.45-0.473-0.68-1.093-1.27-1.86-1.77-0.767-0.507-1.64-0.963-2.62-1.37-0.987-0.407-1.997-0.83-3.03-1.27-1.033-0.44-2.043-0.923-3.03-1.45-0.987-0.527-1.86-1.163-2.62-1.91-0.767-0.74-1.387-1.627-1.86-2.66-0.473-1.033-0.71-2.267-0.71-3.7v0c0-1.607 0.31-3.053 0.93-4.34 0.62-1.287 1.49-2.383 2.61-3.29 1.127-0.9 2.48-1.593 4.06-2.08 1.573-0.487 3.33-0.73 5.27-0.73v0c0.533 0 1.163 0.02 1.89 0.06 0.727 0.04 1.5 0.113 2.32 0.22 0.82 0.1 1.673 0.237 2.56 0.41 0.887 0.173 1.77 0.38 2.65 0.62v0l-1.12 5.25-0.44 0.22c-0.813-0.353-1.613-0.657-2.4-0.91-0.793-0.253-1.547-0.463-2.26-0.63-0.72-0.16-1.393-0.273-2.02-0.34-0.627-0.067-1.173-0.1-1.64-0.1v0c-0.833 0-1.593 0.1-2.28 0.3-0.68 0.193-1.263 0.473-1.75 0.84-0.493 0.367-0.87 0.823-1.13 1.37-0.26 0.54-0.39 1.16-0.39 1.86v0c0 0.967 0.237 1.787 0.71 2.46 0.473 0.673 1.097 1.27 1.87 1.79 0.773 0.52 1.657 0.993 2.65 1.42 0.993 0.42 2.003 0.85 3.03 1.29 1.02 0.44 2.027 0.92 3.02 1.44 0.993 0.52 1.877 1.147 2.65 1.88 0.773 0.733 1.397 1.597 1.87 2.59 0.473 0.993 0.71 2.183 0.71 3.57v0c0 1.573-0.323 3.04-0.97 4.4-0.64 1.36-1.553 2.537-2.74 3.53-1.193 0.993-2.627 1.773-4.3 2.34-1.68 0.573-3.553 0.86-5.62 0.86v0c-0.813 0-1.67-0.05-2.57-0.15-0.907-0.093-1.833-0.24-2.78-0.44-0.953-0.193-1.91-0.437-2.87-0.73-0.96-0.293-1.89-0.637-2.79-1.03v0l1.1-5.24 0.51-0.25c1.793 0.913 3.483 1.647 5.07 2.2 1.587 0.553 3.137 0.83 4.65 0.83zM136.25-30.96v30.96h-7.34v-30.96h-11.36l0.88-4.81h29.45l-0.88 4.81zM175.93 0h-21.95v-35.77h22.56l-0.88 4.81h-14.33v10.13h12.57l-0.8 4.57h-11.77v11.45h15.48zM197.17-13.57h-5.2v13.57h-7.35v-35.77h11.91c2.153 0 4.047 0.25 5.68 0.75 1.633 0.493 3.01 1.167 4.13 2.02 1.113 0.86 1.953 1.86 2.52 3 0.573 1.133 0.86 2.337 0.86 3.61v0c0 1.14-0.213 2.21-0.64 3.21-0.42 1-0.97 1.923-1.65 2.77-0.673 0.847-1.423 1.617-2.25 2.31-0.833 0.687-1.663 1.293-2.49 1.82v0l10.2 16.28h-8.59zM191.97-30.96v12.82h6.74c0.533-0.293 1.03-0.663 1.49-1.11 0.453-0.447 0.85-0.95 1.19-1.51 0.34-0.567 0.61-1.187 0.81-1.86 0.193-0.673 0.29-1.393 0.29-2.16v0c0-0.88-0.143-1.697-0.43-2.45-0.28-0.76-0.703-1.413-1.27-1.96-0.56-0.54-1.263-0.97-2.11-1.29-0.847-0.32-1.83-0.48-2.95-0.48v0z" fill="#ffffff" fill-rule="nonzero" stroke="none" stroke-width="1" stroke-linecap="butt" stroke-linejoin="miter" stroke-miterlimit="10" stroke-dasharray="" stroke-dashoffset="0" font-family="none" font-weight="none" font-size="none" text-anchor="none" style="mix-blend-mode: normal" data-fill-palette-color="primary" opacity="1"></path></g></svg></g></svg></g></svg></g></svg></g><g transform="matrix(1,0,0,1,0,0.37591026249415904)"><svg viewBox="0 0 186.95789241684733 150.36410499766464" height="150.36410499766464" width="186.95789241684733"><g><svg xmlns="http://www.w3.org/2000/svg" xmlns:xlink="http://www.w3.org/1999/xlink" version="1.1" x="0" y="0" viewBox="0 9.786 100.00034525290006 80.42699999999999" enable-background="new 0 0 100 100" xml:space="preserve" width="186.95789241684733" height="150.36410499766464" class="icon-icon-0" data-fill-palette-color="accent" id="icon-0"><path d="M49.942 52.994c13.552-0.488 27.103-0.977 40.653-1.465-2.527-4.177-3.159-7.831-7.989-8.461-7.229-0.94-14.458-1.883-21.688-2.826-14.023-1.827-28.05-3.654-42.075-5.48C20.101 36.792 39.724 53.361 49.942 52.994z" fill="#ffffff" data-fill-palette-color="accent"></path><path d="M0 9.786c4.391 7.257 26.615 23.072 32.953 23.886 17.33 2.231 34.657 4.46 51.986 6.688-3.393-5.607-4.18-9.35-10.312-10.959-8.904-2.341-17.812-4.683-26.717-7.023C31.94 18.182 15.97 13.984 0 9.786z" fill="#ffffff" data-fill-palette-color="accent"></path><path d="M63.108 66.207c10.413-2.219 20.826-4.439 31.241-6.66-2.028-3.346-2.034-5.359-5.827-5.189-6.158 0.273-12.314 0.549-18.471 0.822-11.343 0.506-22.686 1.014-34.028 1.518C37.298 58.064 54.94 67.947 63.108 66.207z" fill="#ffffff" data-fill-palette-color="accent"></path><path d="M87.682 90.213c5.725-3.719 7.262-7.721 10.519-13.807 3.651-6.824 1.257-7.844-2.821-14.596-0.417-0.688-5.842 0.232-6.453 0.904-0.745 0.818-0.248 5.455-0.294 6.496C88.315 76.211 87.998 83.213 87.682 90.213z" fill="#ffffff" data-fill-palette-color="accent"></path><path d="M86.35 63.447c-3.795 0.809-8.604 0.191-9.572 4.229-1.373 5.736-2.746 11.475-4.12 17.211C81.904 82.678 86.028 71.582 86.35 63.447z" fill="#ffffff" data-fill-palette-color="accent"></path><path d="M74.666 66.121c-9.148 1.953-8.956 4.611-12.879 13.18C68.007 78.711 73.811 71.941 74.666 66.121z" fill="#ffffff" data-fill-palette-color="accent"></path></svg></g></svg></g></svg></g><defs></defs></svg><rect width="395.52" height="96.15964810506202" fill="none" stroke="none" visibility="hidden"></rect></g></svg></g></svg>